<svg width="38" height="26" viewBox="0 0 38 26" fill="none" xmlns="http://www.w3.org/2000/svg">
<g clip-path="url(#clip0_5005_35974)">
<path d="M17.206 17.2241H15.0085L16.3819 8.78363H18.5796L17.206 17.2241ZM13.1598 8.78363L11.0648 14.5891L10.8169 13.3389L10.8172 13.3394L10.0777 9.5436C10.0777 9.5436 9.98834 8.78363 9.03533 8.78363H5.57189L5.53125 8.92655C5.53125 8.92655 6.59038 9.14691 7.8299 9.8913L9.73908 17.2244H12.0287L15.5249 8.78363H13.1598ZM30.4443 17.2241H32.4621L30.7028 8.78341H28.9363C28.1206 8.78341 27.9219 9.41242 27.9219 9.41242L24.6445 17.2241H26.9353L27.3934 15.9704H30.1869L30.4443 17.2241ZM28.0262 14.2384L29.1808 11.0798L29.8304 14.2384H28.0262ZM24.8163 10.8134L25.1299 9.00083C25.1299 9.00083 24.1622 8.63281 23.1535 8.63281C22.063 8.63281 19.4733 9.10943 19.4733 11.427C19.4733 13.6076 22.5127 13.6347 22.5127 14.7801C22.5127 15.9254 19.7864 15.7202 18.8867 14.998L18.56 16.8931C18.56 16.8931 19.5412 17.3698 21.0404 17.3698C22.54 17.3698 24.8023 16.5933 24.8023 14.48C24.8023 12.2855 21.7356 12.0811 21.7356 11.127C21.7358 10.1726 23.876 10.2952 24.8163 10.8134Z" fill="black"/>
</g>
<defs>
<clipPath id="clip0_5005_35974">
<rect width="28" height="10" fill="white" transform="translate(5 8)"/>
</clipPath>
</defs>
</svg>
